<svg xmlns="http://www.w3.org/2000/svg" width="229.844" height="179.862" viewBox="0 0 229.844 179.862">
  <g id="Group_17501" data-name="Group 17501" transform="translate(0 -0.163)">
    <path id="Path_25156" data-name="Path 25156" d="M91.76,148.607s-12.907-23.373-1.4-34.187,17.791-16.744,22.675-33.14,15.7-21.629,37.326-19.884S198.506,72.21,198.506,72.21s29.652-12.907,45.35-5.581,16.4,23.024,10.116,40.815,1.047,27.907,3.139,35.931,1.4,39.768-25.466,39.07S92.108,150,92.108,150Z" transform="translate(-56.352 -40.215)" fill="#d5efed"/>
    <path id="Path_25157" data-name="Path 25157" d="M229.844,490.418c0,4.166-51.452,7.544-114.922,7.544S0,494.584,0,490.418s51.453-7.544,114.922-7.544,114.922,3.378,114.922,7.544" transform="translate(0 -317.937)" fill="#d5efed"/>
    <path id="Path_25158" data-name="Path 25158" d="M306.858,266.916l-60.712,36.462-60.637-36.452Z" transform="translate(-122.144 -175.744)" fill="#1c4e41"/>
    <path id="Path_25159" data-name="Path 25159" d="M306.577,180.9,249.25,137.521a6.152,6.152,0,0,0-7.45,0L184.622,180.9Z" transform="translate(-121.56 -89.722)" fill="#1c4e41"/>
    <path id="Path_25160" data-name="Path 25160" d="M303.722,170.957,259.54,137.52a6.152,6.152,0,0,0-7.45,0l-51.84,39.33Z" transform="translate(-131.85 -89.722)" fill="#1c4e41"/>
    <path id="Path_25161" data-name="Path 25161" d="M166.621,56.687V56.53a13.218,13.218,0,0,0-26.436,0v.157Z" transform="translate(-92.301 -28.52)" fill="#1c4e41"/>
    <path id="Path_25162" data-name="Path 25162" d="M294.834,186.863h-89a13.22,13.22,0,0,1-13.219-13.219L192,56.521A13.221,13.221,0,0,0,178.785,43.3h99.223a13.221,13.221,0,0,1,13.219,13.22l.616,95.882h0v21.241c0,7.3-4.307,13.219,2.994,13.219" transform="translate(-117.716 -28.511)" fill="#fff"/>
    <rect id="Rectangle_23157" data-name="Rectangle 23157" width="10.844" height="0.512" transform="translate(87.146 129.811)" fill="#5e3b3b"/>
    <rect id="Rectangle_23158" data-name="Rectangle 23158" width="37.521" height="0.512" transform="translate(103.334 129.811)" fill="#5e3b3b"/>
    <rect id="Rectangle_23159" data-name="Rectangle 23159" width="10.844" height="0.512" transform="translate(87.146 59.006)" fill="#38a185"/>
    <rect id="Rectangle_23160" data-name="Rectangle 23160" width="31.359" height="0.512" transform="translate(103.333 59.006)" fill="#38a185"/>
    <rect id="Rectangle_23161" data-name="Rectangle 23161" width="26.75" height="0.512" transform="translate(87.146 63.628)" fill="#38a185"/>
    <rect id="Rectangle_23162" data-name="Rectangle 23162" width="10.844" height="0.512" transform="translate(87.146 110.617)" fill="#38a185"/>
    <rect id="Rectangle_23163" data-name="Rectangle 23163" width="37.521" height="0.512" transform="translate(103.334 110.617)" fill="#38a185"/>
    <rect id="Rectangle_23164" data-name="Rectangle 23164" width="26.75" height="0.512" transform="translate(87.146 115.239)" fill="#38a185"/>
    <rect id="Rectangle_23165" data-name="Rectangle 23165" width="33.529" height="0.512" transform="translate(119.082 115.239)" fill="#38a185"/>
    <rect id="Rectangle_23166" data-name="Rectangle 23166" width="17.309" height="0.512" transform="translate(87.146 100.809)" fill="#38a185"/>
    <rect id="Rectangle_23167" data-name="Rectangle 23167" width="27.622" height="0.512" transform="translate(87.146 105.431)" fill="#38a185"/>
    <rect id="Rectangle_23168" data-name="Rectangle 23168" width="12.024" height="0.512" transform="translate(120.039 105.431)" fill="#38a185"/>
    <rect id="Rectangle_23169" data-name="Rectangle 23169" width="27.622" height="0.512" transform="translate(87.146 54.325)" fill="#38a185"/>
    <rect id="Rectangle_23170" data-name="Rectangle 23170" width="12.024" height="0.512" transform="translate(120.381 54.325)" fill="#38a185"/>
    <rect id="Rectangle_23171" data-name="Rectangle 23171" width="12.024" height="0.512" transform="translate(109.575 100.809)" fill="#38a185"/>
    <rect id="Rectangle_23172" data-name="Rectangle 23172" width="30.047" height="0.512" transform="translate(126.772 100.809)" fill="#38a185"/>
    <rect id="Rectangle_23173" data-name="Rectangle 23173" width="17.309" height="0.512" transform="translate(87.146 119.995)" fill="#5e3b3b"/>
    <rect id="Rectangle_23174" data-name="Rectangle 23174" width="27.622" height="0.512" transform="translate(87.146 124.617)" fill="#5e3b3b"/>
    <rect id="Rectangle_23175" data-name="Rectangle 23175" width="12.024" height="0.512" transform="translate(120.039 124.617)" fill="#5e3b3b"/>
    <rect id="Rectangle_23176" data-name="Rectangle 23176" width="12.024" height="0.512" transform="translate(109.575 119.995)" fill="#38a185"/>
    <rect id="Rectangle_23177" data-name="Rectangle 23177" width="30.047" height="0.512" transform="translate(126.772 119.995)" fill="#38a185"/>
    <rect id="Rectangle_23178" data-name="Rectangle 23178" width="18.745" height="0.512" transform="translate(137.801 54.325)" fill="#38a185"/>
    <rect id="Rectangle_23179" data-name="Rectangle 23179" width="33.988" height="4.406" transform="translate(87.133 35.469)" fill="#38a185"/>
    <rect id="Rectangle_23180" data-name="Rectangle 23180" width="33.988" height="1.6" transform="translate(87.133 42.557)" fill="#38a185"/>
    <rect id="Rectangle_23181" data-name="Rectangle 23181" width="78.938" height="27.733" transform="translate(87.146 68.507)" fill="#ebf8f7"/>
    <path id="Path_25163" data-name="Path 25163" d="M482.636,152.258l-.617-95.883A12.893,12.893,0,0,0,469.142,43.5v-.683A13.576,13.576,0,0,1,482.7,56.373l.617,95.88Z" transform="translate(-308.895 -28.188)" fill="#1c4e41"/>
    <path id="Path_25164" data-name="Path 25164" d="M206.24,187.018h-.53A13.557,13.557,0,0,1,192.149,173.5l-.613-117.121A12.893,12.893,0,0,0,178.658,43.5v-.683h59.13V43.5H182.911a13.585,13.585,0,0,1,9.308,12.878l.613,117.121a12.873,12.873,0,0,0,12.878,12.84h.53c7.98,0,11.122-7.041,12.352-12.947l.669.139c-1.839,8.826-6.341,13.491-13.021,13.491" transform="translate(-117.633 -28.188)" fill="#1c4e41"/>
    <rect id="Rectangle_23182" data-name="Rectangle 23182" width="0.683" height="5.85" transform="translate(37.284 18.322) rotate(-61.337)" fill="#1c4e41"/>
    <rect id="Rectangle_23183" data-name="Rectangle 23183" width="5.85" height="0.683" transform="matrix(0.996, -0.09, 0.09, 0.996, 36.052, 24.304)" fill="#1c4e41"/>
    <path id="Path_25165" data-name="Path 25165" d="M306.934,266.945v70.481a5.737,5.737,0,0,1-5.677,5.8H191.186a5.737,5.737,0,0,1-5.676-5.8V266.945l60.712,36.462Z" transform="translate(-122.144 -175.764)" fill="#52b399"/>
    <path id="Path_25166" data-name="Path 25166" d="M290.41,375.143,272.474,361.79a6.335,6.335,0,0,0-7.573,0l-45.156,33.7Z" transform="translate(-144.686 -237.387)" fill="#52b399"/>
    <path id="Path_25167" data-name="Path 25167" d="M261.839,384.352l-.409-.548,30.713-22.923a6.718,6.718,0,0,1,7.981,0l17.935,13.353-.408.548-17.935-13.353a6.03,6.03,0,0,0-7.165,0Z" transform="translate(-172.132 -236.746)" fill="#1c4e41"/>
    <path id="Path_25168" data-name="Path 25168" d="M246.044,395.952H190.527a6.085,6.085,0,0,1-6.018-6.137v-43.3h.683v43.3a5.4,5.4,0,0,0,5.334,5.454h55.517Z" transform="translate(-121.485 -228.153)" fill="#1c4e41"/>
    <path id="Path_25169" data-name="Path 25169" d="M511.225,418.01H504.4v-.683h6.821a5.4,5.4,0,0,0,5.335-5.454v-31.86h.683v31.86a6.085,6.085,0,0,1-6.018,6.137" transform="translate(-332.111 -250.211)" fill="#1c4e41"/>
    <path id="Path_25170" data-name="Path 25170" d="M240.564,299.511l-55.449-33.123V283.9h-.683v-18.72l56.482,33.74Z" transform="translate(-121.435 -174.604)" fill="#1c4e41"/>
    <rect id="Rectangle_23184" data-name="Rectangle 23184" width="5.85" height="0.683" transform="matrix(0.883, -0.469, 0.469, 0.883, 174.626, 14.148)" fill="#1c4e41"/>
    <rect id="Rectangle_23185" data-name="Rectangle 23185" width="5.85" height="0.683" transform="matrix(0.473, -0.881, 0.881, 0.473, 172.109, 11.918)" fill="#1c4e41"/>
    <path id="Path_25176" data-name="Path 25176" d="M89.65,344.641h37.583a4.157,4.157,0,0,0,4.145-4.145l1.708-70.2a4.157,4.157,0,0,0-4.145-4.145h-41A4.158,4.158,0,0,0,83.8,270.3L85.5,340.5a4.158,4.158,0,0,0,4.145,4.145" transform="translate(-55.174 -175.24)" fill="#1c4e41"/>
    <path id="Path_25177" data-name="Path 25177" d="M126.575,344.323H88.992a4.492,4.492,0,0,1-4.487-4.487L82.8,269.645a4.493,4.493,0,0,1,4.487-4.5h41a4.492,4.492,0,0,1,4.487,4.487l-1.708,70.208a4.49,4.49,0,0,1-4.487,4.478m-39.29-78.49a3.808,3.808,0,0,0-3.8,3.8l1.708,70.191a3.81,3.81,0,0,0,3.8,3.812h37.583a3.808,3.808,0,0,0,3.8-3.8l1.708-70.208a3.806,3.806,0,0,0-3.8-3.8Z" transform="translate(-54.516 -174.582)" fill="#633f3f"/>
    <path id="Path_25178" data-name="Path 25178" d="M98.65,344.641h37.583a4.157,4.157,0,0,0,4.145-4.145l1.708-70.2a4.157,4.157,0,0,0-4.145-4.145h-41A4.158,4.158,0,0,0,92.8,270.3L94.5,340.5a4.158,4.158,0,0,0,4.145,4.145" transform="translate(-61.1 -175.24)" fill="#fff"/>
    <path id="Path_25179" data-name="Path 25179" d="M114.311,308.94h29.161a4.269,4.269,0,0,0,4.257-4.257V289.3a4.269,4.269,0,0,0-4.257-4.257H114.311a4.269,4.269,0,0,0-4.257,4.257v15.382a4.269,4.269,0,0,0,4.257,4.257" transform="translate(-72.462 -187.681)" fill="#ebf8f7"/>
    <path id="Path_25180" data-name="Path 25180" d="M135.575,344.323H97.992a4.492,4.492,0,0,1-4.487-4.487L91.8,269.645a4.493,4.493,0,0,1,4.487-4.5h41a4.492,4.492,0,0,1,4.487,4.487h-.683a3.808,3.808,0,0,0-3.8-3.8h-41a3.808,3.808,0,0,0-3.8,3.8l1.708,70.191a3.81,3.81,0,0,0,3.8,3.812h37.583a3.808,3.808,0,0,0,3.8-3.8l.164-6.744.683.017-.164,6.736a4.49,4.49,0,0,1-4.487,4.478" transform="translate(-60.441 -174.582)" fill="#1c4e41"/>
    <path id="Path_25181" data-name="Path 25181" d="M142.812,308.623H113.652a4.6,4.6,0,0,1-4.6-4.6V288.643a4.6,4.6,0,0,1,4.6-4.6h29.161a4.6,4.6,0,0,1,4.6,4.6v15.381a4.6,4.6,0,0,1-4.6,4.6m-29.161-23.9a3.92,3.92,0,0,0-3.915,3.915v15.381a3.92,3.92,0,0,0,3.915,3.916h29.161a3.92,3.92,0,0,0,3.915-3.916V288.643a3.92,3.92,0,0,0-3.915-3.915Z" transform="translate(-71.803 -187.021)" fill="#1c4e41"/>
    <rect id="Rectangle_23186" data-name="Rectangle 23186" width="0.513" height="36.116" transform="translate(30.345 113.417) rotate(-1.384)" fill="#fff"/>
    <path id="Path_25182" data-name="Path 25182" d="M193.535,384.472h3.924a1.881,1.881,0,0,0,1.875-1.875V380.94a1.881,1.881,0,0,0-1.875-1.875h-3.924a1.881,1.881,0,0,0-1.875,1.875V382.6a1.88,1.88,0,0,0,1.875,1.875" transform="translate(-126.193 -249.586)" fill="#afc9f9"/>
    <path id="Path_25183" data-name="Path 25183" d="M193.535,384.472h3.924a1.881,1.881,0,0,0,1.875-1.875V380.94a1.881,1.881,0,0,0-1.875-1.875h-3.924a1.881,1.881,0,0,0-1.875,1.875V382.6a1.88,1.88,0,0,0,1.875,1.875" transform="translate(-126.193 -249.586)" fill="#f2695f"/>
    <path id="Path_25184" data-name="Path 25184" d="M193.535,410.259h3.924a1.881,1.881,0,0,0,1.875-1.875v-1.657a1.881,1.881,0,0,0-1.875-1.875h-3.924a1.88,1.88,0,0,0-1.875,1.875v1.657a1.88,1.88,0,0,0,1.875,1.875" transform="translate(-126.193 -266.564)" fill="#afc9f9"/>
    <path id="Path_25185" data-name="Path 25185" d="M193.535,435.791h3.924a1.881,1.881,0,0,0,1.875-1.875v-1.657a1.881,1.881,0,0,0-1.875-1.875h-3.924a1.881,1.881,0,0,0-1.875,1.875v1.657a1.88,1.88,0,0,0,1.875,1.875" transform="translate(-126.193 -283.376)" fill="#afc9f9"/>
    <path id="Path_25186" data-name="Path 25186" d="M193.535,461.515h3.924a1.881,1.881,0,0,0,1.875-1.875v-1.657a1.881,1.881,0,0,0-1.875-1.875h-3.924a1.88,1.88,0,0,0-1.875,1.875v1.657a1.88,1.88,0,0,0,1.875,1.875" transform="translate(-126.193 -300.313)" fill="#afc9f9"/>
    <path id="Path_25187" data-name="Path 25187" d="M157.088,384.472h3.924a1.88,1.88,0,0,0,1.875-1.875V380.94a1.881,1.881,0,0,0-1.875-1.875h-3.924a1.88,1.88,0,0,0-1.875,1.875V382.6a1.88,1.88,0,0,0,1.875,1.875" transform="translate(-102.195 -249.586)" fill="#70dec1"/>
    <path id="Path_25188" data-name="Path 25188" d="M120.641,384.472h3.924a1.881,1.881,0,0,0,1.875-1.875V380.94a1.881,1.881,0,0,0-1.875-1.875h-3.924a1.88,1.88,0,0,0-1.875,1.875V382.6a1.88,1.88,0,0,0,1.875,1.875" transform="translate(-78.198 -249.586)" fill="#70dec1"/>
    <path id="Path_25189" data-name="Path 25189" d="M193.535,410.259h3.924a1.881,1.881,0,0,0,1.875-1.875v-1.657a1.881,1.881,0,0,0-1.875-1.875h-3.924a1.88,1.88,0,0,0-1.875,1.875v1.657a1.88,1.88,0,0,0,1.875,1.875" transform="translate(-126.193 -266.564)" fill="#70dec1"/>
    <path id="Path_25190" data-name="Path 25190" d="M157.088,410.259h3.924a1.88,1.88,0,0,0,1.875-1.875v-1.657a1.88,1.88,0,0,0-1.875-1.875h-3.924a1.88,1.88,0,0,0-1.875,1.875v1.657a1.88,1.88,0,0,0,1.875,1.875" transform="translate(-102.195 -266.564)" fill="#70dec1"/>
    <path id="Path_25191" data-name="Path 25191" d="M120.641,410.259h3.924a1.881,1.881,0,0,0,1.875-1.875v-1.657a1.881,1.881,0,0,0-1.875-1.875h-3.924a1.88,1.88,0,0,0-1.875,1.875v1.657a1.88,1.88,0,0,0,1.875,1.875" transform="translate(-78.198 -266.564)" fill="#70dec1"/>
    <path id="Path_25192" data-name="Path 25192" d="M193.535,435.791h3.924a1.881,1.881,0,0,0,1.875-1.875v-1.657a1.881,1.881,0,0,0-1.875-1.875h-3.924a1.881,1.881,0,0,0-1.875,1.875v1.657a1.88,1.88,0,0,0,1.875,1.875" transform="translate(-126.193 -283.376)" fill="#70dec1"/>
    <path id="Path_25193" data-name="Path 25193" d="M157.088,435.791h3.924a1.88,1.88,0,0,0,1.875-1.875v-1.657a1.881,1.881,0,0,0-1.875-1.875h-3.924a1.881,1.881,0,0,0-1.875,1.875v1.657a1.88,1.88,0,0,0,1.875,1.875" transform="translate(-102.195 -283.376)" fill="#70dec1"/>
    <path id="Path_25194" data-name="Path 25194" d="M120.641,435.791h3.924a1.881,1.881,0,0,0,1.875-1.875v-1.657a1.881,1.881,0,0,0-1.875-1.875h-3.924a1.881,1.881,0,0,0-1.875,1.875v1.657a1.88,1.88,0,0,0,1.875,1.875" transform="translate(-78.198 -283.376)" fill="#70dec1"/>
    <path id="Path_25195" data-name="Path 25195" d="M120.641,461.515h3.924a1.881,1.881,0,0,0,1.875-1.875v-1.657a1.881,1.881,0,0,0-1.875-1.875h-3.924a1.88,1.88,0,0,0-1.875,1.875v1.657a1.88,1.88,0,0,0,1.875,1.875" transform="translate(-78.198 -300.313)" fill="#70dec1"/>
    <path id="Path_25196" data-name="Path 25196" d="M193.535,461.515h3.924a1.881,1.881,0,0,0,1.875-1.875v-1.657a1.881,1.881,0,0,0-1.875-1.875h-3.924a1.88,1.88,0,0,0-1.875,1.875v1.657a1.88,1.88,0,0,0,1.875,1.875" transform="translate(-126.193 -300.313)" fill="#70dec1"/>
    <path id="Path_25197" data-name="Path 25197" d="M157.088,461.515h3.924a1.88,1.88,0,0,0,1.875-1.875v-1.657a1.881,1.881,0,0,0-1.875-1.875h-3.924a1.88,1.88,0,0,0-1.875,1.875v1.657a1.88,1.88,0,0,0,1.875,1.875" transform="translate(-102.195 -300.313)" fill="#70dec1"/>
    <path id="Path_25198" data-name="Path 25198" d="M196.8,384.155h-3.925a2.219,2.219,0,0,1-2.216-2.216v-1.657a2.219,2.219,0,0,1,2.216-2.216H196.8a2.219,2.219,0,0,1,2.216,2.216v1.657a2.219,2.219,0,0,1-2.216,2.216m-3.925-5.407a1.535,1.535,0,0,0-1.533,1.533v1.657a1.535,1.535,0,0,0,1.533,1.533H196.8a1.535,1.535,0,0,0,1.533-1.533v-1.657a1.535,1.535,0,0,0-1.533-1.533Z" transform="translate(-125.535 -248.928)" fill="#5e3b3b"/>
    <path id="Path_25199" data-name="Path 25199" d="M160.354,384.155h-3.924a2.219,2.219,0,0,1-2.216-2.216v-1.657a2.219,2.219,0,0,1,2.216-2.216h3.924a2.219,2.219,0,0,1,2.217,2.216v1.657a2.219,2.219,0,0,1-2.217,2.216m-3.924-5.407a1.535,1.535,0,0,0-1.533,1.533v1.657a1.535,1.535,0,0,0,1.533,1.533h3.924a1.535,1.535,0,0,0,1.534-1.533v-1.657a1.535,1.535,0,0,0-1.534-1.533Z" transform="translate(-101.537 -248.928)" fill="#5e3b3b"/>
    <path id="Path_25200" data-name="Path 25200" d="M123.907,384.155h-3.924a2.219,2.219,0,0,1-2.216-2.216v-1.657a2.219,2.219,0,0,1,2.216-2.216h3.924a2.219,2.219,0,0,1,2.217,2.216v1.657a2.219,2.219,0,0,1-2.217,2.216m-3.924-5.407a1.535,1.535,0,0,0-1.533,1.533v1.657a1.535,1.535,0,0,0,1.533,1.533h3.924a1.535,1.535,0,0,0,1.534-1.533v-1.657a1.535,1.535,0,0,0-1.534-1.533Z" transform="translate(-77.54 -248.928)" fill="#5e3b3b"/>
    <path id="Path_25201" data-name="Path 25201" d="M196.8,409.942h-3.925a2.219,2.219,0,0,1-2.216-2.216v-1.657a2.219,2.219,0,0,1,2.216-2.217H196.8a2.219,2.219,0,0,1,2.216,2.217v1.657a2.219,2.219,0,0,1-2.216,2.216m-3.925-5.407a1.535,1.535,0,0,0-1.533,1.534v1.657a1.535,1.535,0,0,0,1.533,1.533H196.8a1.535,1.535,0,0,0,1.533-1.533v-1.657a1.535,1.535,0,0,0-1.533-1.534Z" transform="translate(-125.535 -265.906)" fill="#5e3b3b"/>
    <path id="Path_25202" data-name="Path 25202" d="M160.354,409.942h-3.924a2.219,2.219,0,0,1-2.216-2.216v-1.657a2.219,2.219,0,0,1,2.216-2.217h3.924a2.219,2.219,0,0,1,2.217,2.217v1.657a2.219,2.219,0,0,1-2.217,2.216m-3.924-5.407a1.535,1.535,0,0,0-1.533,1.534v1.657a1.535,1.535,0,0,0,1.533,1.533h3.924a1.535,1.535,0,0,0,1.534-1.533v-1.657a1.536,1.536,0,0,0-1.534-1.534Z" transform="translate(-101.537 -265.906)" fill="#5e3b3b"/>
    <path id="Path_25203" data-name="Path 25203" d="M123.907,409.942h-3.924a2.219,2.219,0,0,1-2.216-2.216v-1.657a2.219,2.219,0,0,1,2.216-2.217h3.924a2.219,2.219,0,0,1,2.217,2.217v1.657a2.219,2.219,0,0,1-2.217,2.216m-3.924-5.407a1.535,1.535,0,0,0-1.533,1.534v1.657a1.535,1.535,0,0,0,1.533,1.533h3.924a1.535,1.535,0,0,0,1.534-1.533v-1.657a1.536,1.536,0,0,0-1.534-1.534Z" transform="translate(-77.54 -265.906)" fill="#5e3b3b"/>
    <path id="Path_25204" data-name="Path 25204" d="M196.8,435.474h-3.925a2.219,2.219,0,0,1-2.216-2.216V431.6a2.219,2.219,0,0,1,2.216-2.216H196.8a2.219,2.219,0,0,1,2.216,2.216v1.657a2.219,2.219,0,0,1-2.216,2.216m-3.925-5.407a1.535,1.535,0,0,0-1.533,1.533v1.657a1.535,1.535,0,0,0,1.533,1.533H196.8a1.535,1.535,0,0,0,1.533-1.533V431.6a1.535,1.535,0,0,0-1.533-1.533Z" transform="translate(-125.535 -282.717)" fill="#5e3b3b"/>
    <path id="Path_25205" data-name="Path 25205" d="M160.354,435.474h-3.924a2.219,2.219,0,0,1-2.216-2.216V431.6a2.219,2.219,0,0,1,2.216-2.216h3.924a2.219,2.219,0,0,1,2.217,2.216v1.657a2.219,2.219,0,0,1-2.217,2.216m-3.924-5.407A1.535,1.535,0,0,0,154.9,431.6v1.657a1.535,1.535,0,0,0,1.533,1.533h3.924a1.535,1.535,0,0,0,1.534-1.533V431.6a1.535,1.535,0,0,0-1.534-1.533Z" transform="translate(-101.537 -282.717)" fill="#5e3b3b"/>
    <path id="Path_25206" data-name="Path 25206" d="M123.907,435.474h-3.924a2.219,2.219,0,0,1-2.216-2.216V431.6a2.219,2.219,0,0,1,2.216-2.216h3.924a2.219,2.219,0,0,1,2.217,2.216v1.657a2.219,2.219,0,0,1-2.217,2.216m-3.924-5.407a1.535,1.535,0,0,0-1.533,1.533v1.657a1.535,1.535,0,0,0,1.533,1.533h3.924a1.535,1.535,0,0,0,1.534-1.533V431.6a1.535,1.535,0,0,0-1.534-1.533Z" transform="translate(-77.54 -282.717)" fill="#5e3b3b"/>
    <path id="Path_25207" data-name="Path 25207" d="M196.8,461.2h-3.925a2.219,2.219,0,0,1-2.216-2.216v-1.657a2.219,2.219,0,0,1,2.216-2.216H196.8a2.219,2.219,0,0,1,2.216,2.216v1.657A2.219,2.219,0,0,1,196.8,461.2m-3.925-5.407a1.535,1.535,0,0,0-1.533,1.533v1.657a1.535,1.535,0,0,0,1.533,1.533H196.8a1.535,1.535,0,0,0,1.533-1.533v-1.657a1.535,1.535,0,0,0-1.533-1.533Z" transform="translate(-125.535 -299.654)" fill="#5e3b3b"/>
    <path id="Path_25208" data-name="Path 25208" d="M160.354,461.2h-3.924a2.219,2.219,0,0,1-2.216-2.216v-1.657a2.219,2.219,0,0,1,2.216-2.216h3.924a2.219,2.219,0,0,1,2.217,2.216v1.657a2.219,2.219,0,0,1-2.217,2.216m-3.924-5.407a1.535,1.535,0,0,0-1.533,1.533v1.657a1.535,1.535,0,0,0,1.533,1.533h3.924a1.535,1.535,0,0,0,1.534-1.533v-1.657a1.535,1.535,0,0,0-1.534-1.533Z" transform="translate(-101.537 -299.654)" fill="#5e3b3b"/>
    <path id="Path_25209" data-name="Path 25209" d="M123.907,461.2h-3.924a2.219,2.219,0,0,1-2.216-2.216v-1.657a2.219,2.219,0,0,1,2.216-2.216h3.924a2.219,2.219,0,0,1,2.217,2.216v1.657a2.219,2.219,0,0,1-2.217,2.216m-3.924-5.407a1.535,1.535,0,0,0-1.533,1.533v1.657a1.535,1.535,0,0,0,1.533,1.533h3.924a1.535,1.535,0,0,0,1.534-1.533v-1.657a1.535,1.535,0,0,0-1.534-1.533Z" transform="translate(-77.54 -299.654)" fill="#5e3b3b"/>
    <path id="Path_25210" data-name="Path 25210" d="M118.053,343.73a.814.814,0,1,1-.814-.814.814.814,0,0,1,.814.814" transform="translate(-76.656 -225.784)" fill="#633f3f"/>
    <g id="download_from_cloud" transform="translate(120.316 -1.851)">
      <path id="Path_25211" data-name="Path 25211" d="M35.407,19.039A13.357,13.357,0,0,0,9.521,12.554a10.686,10.686,0,0,0,2.117,21.177H35.013a7.349,7.349,0,1,0,.394-14.693Z" transform="translate(1.273 2.319)" fill="#aed5d2"/>
      <path id="Path_25219" data-name="Path 25219" d="M35.407,19.039A13.357,13.357,0,0,0,9.521,12.554a10.686,10.686,0,0,0,2.117,21.177H35.013a7.349,7.349,0,1,0,.394-14.693Z" transform="translate(-0.345 -0.338)" fill="#ebf8f7"/>
      <path id="Path_25212" data-name="Path 25212" d="M17.549,10.077a1.676,1.676,0,0,0,2.484-.14,10.018,10.018,0,0,1,15.36,0,1.676,1.676,0,0,0,2.484.14h0a1.683,1.683,0,0,0,.08-2.277,13.357,13.357,0,0,0-20.49,0A1.683,1.683,0,0,0,17.549,10.077Z" transform="translate(-5.727 -0.332)" fill="#70dec1"/>
      <path id="Path_25213" data-name="Path 25213" d="M6,44H42.732l-4.007,3.339H10.675Z" transform="translate(-2.052 -13.946)" fill="#70dec1"/>
      <path id="Path_25214" data-name="Path 25214" d="M9.668,42A.668.668,0,0,0,9,42.668V44a.668.668,0,0,0,1.336,0V42.668A.668.668,0,0,0,9.668,42Zm3.339,0a.668.668,0,0,0-.668.668V44a.668.668,0,0,0,1.336,0V42.668A.668.668,0,0,0,13.007,42Zm3.339,0a.668.668,0,0,0-.668.668V44a.668.668,0,0,0,1.336,0V42.668A.668.668,0,0,0,16.346,42Zm3.339,0a.668.668,0,0,0-.668.668V44a.668.668,0,0,0,1.336,0V42.668A.668.668,0,0,0,19.686,42Zm9.35,0a.668.668,0,0,0-.668.668V44A.668.668,0,0,0,29.7,44V42.668A.668.668,0,0,0,29.035,42Zm3.339,0a.668.668,0,0,0-.668.668V44a.668.668,0,0,0,1.336,0V42.668A.668.668,0,0,0,32.375,42Zm3.339,0a.668.668,0,0,0-.668.668V44a.668.668,0,1,0,1.336,0V42.668A.668.668,0,0,0,35.714,42Zm3.339,0a.668.668,0,0,0-.668.668V44a.668.668,0,0,0,1.336,0V42.668A.668.668,0,0,0,39.053,42Zm3.339,0a.668.668,0,0,0-.668.668V44a.668.668,0,0,0,1.336,0V42.668A.668.668,0,0,0,42.392,42Z" transform="translate(-3.049 -13.281)" fill="#38a185"/>
      <path id="Path_25215" data-name="Path 25215" d="M37.554,18.594a.667.667,0,0,0-.093-.06,7.934,7.934,0,0,0-1.409-.361l-.2-.04a14.312,14.312,0,0,0,0-4.007,14.025,14.025,0,0,0-26.8-3.573h0c-.12.294-.22.588-.327.888a.732.732,0,0,1-.08.207,11.353,11.353,0,0,0,2.952,22.413h22.84a8.208,8.208,0,0,0,8.248-7.714A8.054,8.054,0,0,0,37.554,18.594Zm1.79,12.128a8.715,8.715,0,0,1-.775.668,7.006,7.006,0,0,1-4.134,1.336H11.594a10.519,10.519,0,0,1-5.737-1.69c-.514-.367-1.242-.982-1.242-.982a9.824,9.824,0,0,1-3.339-6.785,10.084,10.084,0,0,1,6.972-10.1,14.071,14.071,0,0,0-.294,2.858.668.668,0,1,0,1.336,0,12.649,12.649,0,0,1,.521-3.6h0c.073-.247.16-.488.247-.728.047-.12.087-.24.134-.361a12.689,12.689,0,0,1,11.787-8,13.063,13.063,0,0,1,1.623.1A12.776,12.776,0,0,1,34.555,14.286a12.956,12.956,0,0,1-.06,3.747,8.014,8.014,0,0,0-1.222.107.677.677,0,0,0,.227,1.336,6.738,6.738,0,0,1,1.563-.107,1.751,1.751,0,0,1,.528.053l.214.033A6.678,6.678,0,0,1,41.347,26.3,6.525,6.525,0,0,1,39.343,30.722Z" transform="translate(0)" fill="#3b8a76"/>
      <path id="Path_25216" data-name="Path 25216" d="M37.118,10.343a.668.668,0,0,0-.1-.942,10.786,10.786,0,0,0-1.69-1.122A.668.668,0,0,0,34.7,9.455a9.443,9.443,0,0,1,1.483.982A.668.668,0,0,0,37.118,10.343Zm-4.561-3.1A10.832,10.832,0,0,0,25.21,8.293a.676.676,0,0,0,.668,1.175A9.477,9.477,0,0,1,32.3,8.546a.682.682,0,1,0,.28-1.336Z" transform="translate(-8.319 -1.66)" fill="#38a185"/>
      <path id="Path_25217" data-name="Path 25217" d="M30.35,27V43.7l2.671-2.671L35.693,43.7l-7.346,7.346L21,43.7l2.671-2.671L26.343,43.7V27Z" transform="translate(-7.035 -8.299)" fill="#ebf8f7"/>
      <path id="Path_25218" data-name="Path 25218" d="M28.491,51.184l7.346-7.346a.668.668,0,0,0,0-.942l-2.671-2.671a.668.668,0,0,0-.942,0l-1.536,1.529V26.668A.668.668,0,0,0,30.021,26H26.014a.668.668,0,0,0-.668.668V41.754l-1.529-1.529a.668.668,0,0,0-.942,0L20.2,42.9a.668.668,0,0,0,0,.942l7.346,7.346A.668.668,0,0,0,28.491,51.184Zm-6.879-7.82,1.73-1.73,2.2,2.2a.668.668,0,0,0,1.142-.467V27.336h2.671V43.364a.668.668,0,0,0,1.142.474l2.2-2.2,1.73,1.73-6.4,6.4Z" transform="translate(-6.706 -7.967)" fill="#3b8a76"/>
    </g>
  </g>
</svg>
