<svg xmlns="http://www.w3.org/2000/svg" width="288.09" height="65.998" viewBox="0 0 288.09 65.998">
  <path id="Union_2" data-name="Union 2" d="M234.948,65.591a4.5,4.5,0,0,1-1.382-1.087,5.029,5.029,0,0,1-.9-1.527,5.288,5.288,0,0,1-.3-1.725,4.739,4.739,0,0,1,.3-1.637,4.877,4.877,0,0,1,.857-1.476A4.246,4.246,0,0,1,234.9,57.07a4.2,4.2,0,0,1,1.869-.4,3.873,3.873,0,0,1,2.127.565,3.574,3.574,0,0,1,1.312,1.443l-.553.31a3.062,3.062,0,0,0-.806-1.009,3.006,3.006,0,0,0-1.031-.536,3.959,3.959,0,0,0-1.1-.162,3.386,3.386,0,0,0-1.569.351,3.511,3.511,0,0,0-1.162.935,4.237,4.237,0,0,0-.717,1.3,4.375,4.375,0,0,0-.244,1.438,4.2,4.2,0,0,0,.291,1.55,4.284,4.284,0,0,0,.792,1.3,3.927,3.927,0,0,0,1.181.906,3.2,3.2,0,0,0,1.462.338,3.75,3.75,0,0,0,1.148-.19,3.585,3.585,0,0,0,1.1-.583,2.844,2.844,0,0,0,.825-1.032l.576.273a3.016,3.016,0,0,1-.9,1.166,4.423,4.423,0,0,1-1.34.726,4.629,4.629,0,0,1-1.457.245A3.758,3.758,0,0,1,234.948,65.591Zm52.248.338v-4.4h-5.875v4.4h-.67v-9.2h.67v4.2H287.2v-4.2h.67v9.2Zm-100.809,0v-9.2h6.086v.6h-5.416v3.613h4.737v.569h-4.737v3.821h5.533v.6Zm-43.74,0v-8.6h-3.411v-.6h7.492v.6h-3.411v8.6Zm-43.717,0-6.39-7.966v7.966h-.67v-9.2h.553l6.494,8.1v-8.1h.67v9.2Zm-48.762,0v-9.2h.67v9.2Zm-46.083,0v-9.2h6.063v.6H4.755v3.655H9.333v.569H4.755v4.376ZM174.941,37a18.2,18.2,0,0,1-5.706-4.372,20.365,20.365,0,0,1-5-13.309,19.871,19.871,0,0,1,5.191-13.443,18.769,18.769,0,0,1,5.763-4.293A16.261,16.261,0,0,1,182.334,0,16.068,16.068,0,0,1,189.7,1.665a18.272,18.272,0,0,1,5.678,4.455,20.965,20.965,0,0,1,3.7,6.226,19.468,19.468,0,0,1,1.3,6.976,19.872,19.872,0,0,1-5.191,13.494,18.319,18.319,0,0,1-5.763,4.265A17.228,17.228,0,0,1,174.941,37Zm1.087-33.03a15.075,15.075,0,0,0-4.812,3.863,18.806,18.806,0,0,0-3.1,5.394,17.539,17.539,0,0,0,.033,12.37,17.783,17.783,0,0,0,3.181,5.366,15.439,15.439,0,0,0,4.835,3.756,13.635,13.635,0,0,0,6.17,1.4,13.487,13.487,0,0,0,6.25-1.448,15.333,15.333,0,0,0,4.835-3.863,17.509,17.509,0,0,0,3.069-5.394,18.124,18.124,0,0,0,1.059-6.092,17.861,17.861,0,0,0-1.115-6.278,17.136,17.136,0,0,0-3.181-5.366,15.746,15.746,0,0,0-4.863-3.756,13.389,13.389,0,0,0-6.058-1.4A13.607,13.607,0,0,0,176.028,3.969ZM48.313,37a18.193,18.193,0,0,1-5.706-4.372,20.365,20.365,0,0,1-5-13.309A19.871,19.871,0,0,1,42.8,5.875a18.768,18.768,0,0,1,5.763-4.293A16.261,16.261,0,0,1,55.706,0a16.068,16.068,0,0,1,7.365,1.665A18.266,18.266,0,0,1,68.749,6.12a20.966,20.966,0,0,1,3.7,6.226,19.468,19.468,0,0,1,1.3,6.976,19.872,19.872,0,0,1-5.191,13.494,18.319,18.319,0,0,1-5.763,4.265A17.228,17.228,0,0,1,48.313,37ZM49.4,3.969a15.075,15.075,0,0,0-4.812,3.863,18.806,18.806,0,0,0-3.1,5.394,17.539,17.539,0,0,0,.033,12.37A17.783,17.783,0,0,0,44.7,30.962a15.439,15.439,0,0,0,4.835,3.756,13.635,13.635,0,0,0,6.17,1.4,13.488,13.488,0,0,0,6.25-1.448A15.338,15.338,0,0,0,66.8,30.8a17.509,17.509,0,0,0,3.069-5.394,18.124,18.124,0,0,0,1.059-6.092,17.861,17.861,0,0,0-1.115-6.278,17.135,17.135,0,0,0-3.181-5.366,15.746,15.746,0,0,0-4.863-3.756,13.389,13.389,0,0,0-6.058-1.4A13.607,13.607,0,0,0,49.4,3.969Zm235.973,34.4-26.466-33v33h-2.773V.268h2.282l26.9,33.538V.268h2.773v38.1Zm-46.411,0-9.346-14.382h-12.5V38.367h-2.774V.268h16.033a10.06,10.06,0,0,1,4.54,1.018A11.587,11.587,0,0,1,238.447,4a12.984,12.984,0,0,1,2.338,3.784,11.4,11.4,0,0,1,.843,4.293,12.442,12.442,0,0,1-1.143,5.31,11.4,11.4,0,0,1-3.181,4.131,9.385,9.385,0,0,1-4.755,2.04l9.618,14.812Zm-21.842-16.9h13.526a7.208,7.208,0,0,0,4.348-1.341,8.878,8.878,0,0,0,2.853-3.488,10.62,10.62,0,0,0,1.007-4.561,9.366,9.366,0,0,0-1.167-4.589,9.827,9.827,0,0,0-3.1-3.433,7.519,7.519,0,0,0-4.32-1.314H217.121Zm0,0h0Zm-63.047,16.9L138.585,18.675l-7.824,7.943v11.75h-2.774V.268h2.774V23.4l22.5-23.13h3.2l-16.032,16.69,16.847,21.409Zm-66.36,0V.268h15.869a9.936,9.936,0,0,1,4.483,1.018A11.936,11.936,0,0,1,111.627,4a12.782,12.782,0,0,1,2.366,3.784,11.4,11.4,0,0,1,.843,4.293,12.494,12.494,0,0,1-1.387,5.768,12.051,12.051,0,0,1-3.8,4.427,9.628,9.628,0,0,1-5.735,1.716H90.488V38.367Zm2.778-16.9H103.8a7.309,7.309,0,0,0,4.4-1.341,8.65,8.65,0,0,0,2.825-3.488,10.875,10.875,0,0,0,.98-4.561,9.464,9.464,0,0,0-1.167-4.64,9.635,9.635,0,0,0-3.1-3.409,7.508,7.508,0,0,0-4.268-1.286H90.492Zm0,0h0ZM0,38.367V.268H15.868a9.936,9.936,0,0,1,4.484,1.018A11.936,11.936,0,0,1,23.913,4a12.772,12.772,0,0,1,2.366,3.784,11.39,11.39,0,0,1,.843,4.293,12.494,12.494,0,0,1-1.387,5.768,12.05,12.05,0,0,1-3.8,4.427A9.628,9.628,0,0,1,16.2,23.986H2.774V38.367Zm2.778-16.9h13.31a7.309,7.309,0,0,0,4.4-1.341,8.653,8.653,0,0,0,2.825-3.488,10.874,10.874,0,0,0,.979-4.561,9.464,9.464,0,0,0-1.166-4.64,9.635,9.635,0,0,0-3.1-3.409,7.509,7.509,0,0,0-4.268-1.286H2.778Zm0,0h0Z"/>
</svg>
